<svg id="Layer_1" data-name="Layer 1" xmlns="http://www.w3.org/2000/svg" viewBox="0 0 75.18 67.5"><defs><style>.cls-1{fill:#fff;}</style></defs><title>logo_white</title><path class="cls-1" d="M74.35,50.31h0a13,13,0,0,0-5.06-4.56,45.51,45.51,0,0,0-8.51-3.34c-2.41-.74-4.28-1.39-5.54-1.92a6.76,6.76,0,0,1-2.32-1.4,1.48,1.48,0,0,1-.43-1.1c0-.11,0-.36.71-.73a7.63,7.63,0,0,1,3.19-.68h0l.38,0a11.62,11.62,0,0,1,7,2.2,2.26,2.26,0,0,1,.59.54,1.06,1.06,0,0,1,.18.4l0,.26-.54.82L65.85,42,67.39,43h0l.69.48,1.12-1.69,6.51-9.08-1.25-1.2a24.94,24.94,0,0,0-8.14-5.32,26.34,26.34,0,0,0-9.72-1.74h-.54a22.85,22.85,0,0,0-8.86,1.75,14.93,14.93,0,0,0-6.47,5.13A13.18,13.18,0,0,0,38.42,39a11.18,11.18,0,0,0,4.86,9.56,36.37,36.37,0,0,0,11.89,5.06,38.05,38.05,0,0,1,5,1.75,5.92,5.92,0,0,1,2.1,1.39A1.76,1.76,0,0,1,62.73,58c0,.83,0,2.75-5.21,2.75H57A22.2,22.2,0,0,1,51.2,60a14.68,14.68,0,0,1-4.78-2.38,3.88,3.88,0,0,1-.74-.69,1.52,1.52,0,0,1-.23-.43,9.56,9.56,0,0,0-.31-1l-.25-.62-3.22-1.94-.25.45h0L35.28,64.11l1.13,1.08a26.54,26.54,0,0,0,9.31,5.86A34.41,34.41,0,0,0,57,72.84h.44a20.3,20.3,0,0,0,9.35-2.15,17.77,17.77,0,0,0,6.7-5.78A13.93,13.93,0,0,0,76,57,12.75,12.75,0,0,0,74.35,50.31Z" transform="translate(-0.82 -5.36)"/><path class="cls-1" d="M41.7,49.37a12.26,12.26,0,0,1-4.38-5.53v6.82h5.1v-.81C42.18,49.69,41.93,49.54,41.7,49.37Z" transform="translate(-0.82 -5.36)"/><path class="cls-1" d="M37.32,33.89a14.28,14.28,0,0,1,1.59-3.08,15,15,0,0,1,3.51-3.55v-11c0-.27,0-.54,0-.8A12.39,12.39,0,0,0,40.5,8.29a6.9,6.9,0,0,0-6.13-2.93,10.3,10.3,0,0,0-5.79,1.73,10.15,10.15,0,0,0-3.82,4.52l-1,2.17-.48-2.32a7.48,7.48,0,0,0-2.59-4.38A7.12,7.12,0,0,0,16,5.36a9,9,0,0,0-4.8,1.44A12.14,12.14,0,0,0,7.3,10.61L5.92,12.77V6.46H.82v44.2h5.1V20.91A15.45,15.45,0,0,1,7,15a10.59,10.59,0,0,1,2.75-4.09,5.47,5.47,0,0,1,3.54-1.53c2.22,0,3.77.79,4.61,2.34s1.14,4,1.14,7.91V50.66h5.2V21.21a15,15,0,0,1,1.1-5.53,13.55,13.55,0,0,1,2.92-4.6,5.72,5.72,0,0,1,4-1.92,4.32,4.32,0,0,1,3.83,2c.82,1.27,1.22,3.83,1.22,7.81Z" transform="translate(-0.82 -5.36)"/></svg>