<svg id="Layer_1" data-name="Layer 1" xmlns="http://www.w3.org/2000/svg" viewBox="0 0 75.18 67.5"><defs><style>.cls-1{fill:#333;}</style></defs><title>logo_complete</title><path class="cls-1" d="M74.18,45.31h0a13,13,0,0,0-5.06-4.56,45.66,45.66,0,0,0-8.5-3.34c-2.42-.74-4.28-1.39-5.55-1.92a7,7,0,0,1-2.32-1.4,1.48,1.48,0,0,1-.43-1.1c0-.11,0-.36.71-.73a7.68,7.68,0,0,1,3.2-.68h0l.38,0a11.59,11.59,0,0,1,7,2.2,2.26,2.26,0,0,1,.59.54,1.1,1.1,0,0,1,.19.4l0,.26-.55.82L65.68,37,67.22,38h0l.7.48L69,36.82l6.51-9.08-1.25-1.2a25.09,25.09,0,0,0-8.15-5.32,26.3,26.3,0,0,0-9.72-1.74H55.9A22.77,22.77,0,0,0,47,21.25a14.87,14.87,0,0,0-6.47,5.13A13.18,13.18,0,0,0,38.26,34a11.15,11.15,0,0,0,4.86,9.56A36.31,36.31,0,0,0,55,48.62a37.54,37.54,0,0,1,5,1.75,5.89,5.89,0,0,1,2.11,1.39A1.8,1.8,0,0,1,62.56,53c0,.83,0,2.75-5.21,2.75h-.57A22.26,22.26,0,0,1,51,55a14.78,14.78,0,0,1-4.78-2.38,3.51,3.51,0,0,1-.73-.69,1.14,1.14,0,0,1-.23-.43,9,9,0,0,0-.32-1l-.25-.62L41.5,47.88l-.25.45h0L35.11,59.11l1.13,1.08a26.49,26.49,0,0,0,9.32,5.86,34.35,34.35,0,0,0,11.26,1.79h.45a20.29,20.29,0,0,0,9.34-2.15,17.7,17.7,0,0,0,6.7-5.78,13.93,13.93,0,0,0,2.52-8A12.65,12.65,0,0,0,74.18,45.31Z" transform="translate(-0.65 -0.36)"/><path class="cls-1" d="M41.53,44.37a12.33,12.33,0,0,1-4.38-5.53v6.82h5.1v-.81C42,44.69,41.76,44.54,41.53,44.37Z" transform="translate(-0.65 -0.36)"/><path class="cls-1" d="M37.15,28.89a14.28,14.28,0,0,1,1.59-3.08,15,15,0,0,1,3.51-3.55v-11c0-.27,0-.54,0-.8a12.47,12.47,0,0,0-1.93-7.22A6.91,6.91,0,0,0,34.2.36a10.27,10.27,0,0,0-5.78,1.73,10.11,10.11,0,0,0-3.83,4.52l-.94,2.17-.48-2.32a7.55,7.55,0,0,0-2.6-4.38A7.11,7.11,0,0,0,15.8.36,9,9,0,0,0,11,1.8,12.14,12.14,0,0,0,7.13,5.61L5.75,7.77V1.46H.65v44.2h5.1V15.91A15.64,15.64,0,0,1,6.81,10,10.59,10.59,0,0,1,9.56,5.89,5.47,5.47,0,0,1,13.1,4.36c2.23,0,3.78.79,4.61,2.34s1.14,4,1.14,7.91V45.66h5.2V16.21a14.86,14.86,0,0,1,1.11-5.53,13.38,13.38,0,0,1,2.91-4.6,5.74,5.74,0,0,1,4-1.92,4.31,4.31,0,0,1,3.83,2C36.75,7.47,37.15,10,37.15,14Z" transform="translate(-0.65 -0.36)"/></svg>