<?xml version="1.0" standalone="no"?>
<!DOCTYPE svg PUBLIC "-//W3C//DTD SVG 20010904//EN"
 "http://www.w3.org/TR/2001/REC-SVG-20010904/DTD/svg10.dtd">
<svg version="1.0" xmlns="http://www.w3.org/2000/svg"
 width="500.000000pt" height="500.000000pt" viewBox="0 0 500.000000 500.000000"
 preserveAspectRatio="xMidYMid meet">
<metadata>
Created by potrace 1.11, written by Peter Selinger 2001-2013
</metadata>
<g transform="translate(0.000000,500.000000) scale(0.100000,-0.100000)"
fill="#000000" stroke="none">
<path d="M885 4625 c-90 -28 -138 -53 -218 -114 -86 -65 -129 -112 -209 -234
l-68 -102 0 201 0 202 -164 -1 c-142 0 -165 -2 -168 -16 -2 -9 -4 -655 -3
-1436 l0 -1419 168 -1 167 -1 1 1016 c0 558 3 1029 5 1045 24 171 60 279 132
390 88 137 210 222 327 229 118 6 230 -39 286 -116 31 -44 65 -139 75 -216 3
-26 9 -56 12 -67 2 -11 6 -522 8 -1135 1 -613 3 -1122 3 -1130 1 -13 27 -15
169 -15 l167 0 2 1005 c1 969 2 1008 22 1097 57 260 204 483 371 562 73 34
193 36 256 3 106 -55 156 -137 180 -297 14 -96 18 -235 18 -727 l1 -546 40 76
c69 132 148 229 258 319 l39 31 -5 463 c-2 255 -7 475 -11 489 -4 14 -10 39
-12 55 -10 56 -66 175 -109 234 -94 128 -224 184 -409 176 -129 -5 -208 -25
-296 -73 -157 -87 -246 -187 -325 -364 -21 -48 -42 -85 -46 -83 -4 3 -10 26
-14 52 -29 177 -78 269 -194 366 -120 100 -294 131 -456 82z"/>
<path d="M3568 3405 c-2 -2 -37 -5 -78 -9 -77 -6 -84 -7 -180 -27 -388 -79
-689 -334 -778 -659 -34 -122 -44 -265 -27 -365 3 -22 8 -49 10 -60 13 -78 67
-199 123 -275 120 -164 397 -328 742 -439 66 -21 302 -89 331 -96 9 -2 64 -22
123 -45 213 -83 273 -155 226 -269 -27 -65 -131 -102 -300 -106 -103 -2 -144
1 -285 19 -100 13 -222 49 -310 94 -111 56 -215 141 -215 178 0 7 -7 31 -16
53 -14 35 -30 48 -120 102 -58 34 -106 60 -108 58 -2 -2 -50 -87 -108 -189
-58 -102 -134 -234 -168 -295 -34 -60 -71 -126 -82 -145 -11 -19 -29 -49 -39
-66 l-19 -31 76 -72 c314 -296 674 -452 1131 -488 115 -9 328 -9 407 0 464 51
867 358 995 758 75 233 40 545 -82 724 -41 60 -131 149 -200 199 -145 103
-324 180 -712 304 -356 115 -462 167 -486 240 -11 33 -10 37 15 59 44 37 128
57 251 57 164 1 248 -18 375 -86 126 -67 152 -101 120 -152 -15 -26 -17 -35
-7 -39 7 -3 66 -42 131 -87 64 -45 119 -80 120 -78 2 1 43 59 91 128 116 164
119 169 265 371 69 95 129 179 133 186 5 8 -19 38 -73 90 -175 168 -385 299
-591 369 -55 18 -110 36 -122 38 -94 20 -181 35 -232 42 -54 6 -321 14 -327 9z"/>
<path d="M2426 1938 c1 -117 2 -218 3 -223 1 -7 60 -10 164 -10 l162 0 3 27
c3 22 -5 32 -45 59 -101 69 -203 189 -265 312 l-23 47 1 -212z"/>
</g>
</svg>
