<?xml version="1.0" standalone="no"?>
<!DOCTYPE svg PUBLIC "-//W3C//DTD SVG 20010904//EN"
 "http://www.w3.org/TR/2001/REC-SVG-20010904/DTD/svg10.dtd">
<svg version="1.0" xmlns="http://www.w3.org/2000/svg"
 width="503.000000pt" height="503.000000pt" viewBox="0 0 503.000000 503.000000"
 preserveAspectRatio="xMidYMid meet">
<metadata>
Created by potrace 1.11, written by Peter Selinger 2001-2013
</metadata>
<g transform="translate(0.000000,503.000000) scale(0.100000,-0.100000)"
fill="#000000" stroke="none">
<path d="M3678 4445 c-2 -1 -30 -5 -63 -8 -33 -3 -101 -15 -150 -25 -428 -94
-719 -387 -762 -767 -22 -194 5 -362 84 -532 l36 -77 21 26 c39 47 51 63 131
168 180 238 160 201 161 305 3 254 156 450 412 528 l77 23 107 140 c59 76 121
158 139 182 l31 43 -111 -2 c-60 -1 -111 -2 -113 -4z"/>
<path d="M23 4396 c-7 -11 -7 -3765 0 -3772 4 -4 236 -7 362 -5 l30 1 0 1410
c0 775 3 1406 6 1402 4 -4 100 -191 214 -417 269 -532 537 -1059 540 -1063 1
-1 26 -3 56 -4 111 -2 113 -1 134 39 11 21 72 135 136 253 63 118 136 253 161
300 59 111 326 606 378 702 14 26 42 80 63 120 22 40 43 77 48 83 5 5 9 -248
9 -627 l0 -636 -197 -258 -198 -259 0 -523 0 -522 55 -1 c54 0 284 0 328 1
l22 0 0 778 0 777 34 43 c19 23 107 139 196 257 l163 216 -1 842 c0 463 -1
849 -1 858 -1 15 -20 17 -159 17 -150 0 -159 -1 -172 -21 -7 -12 -55 -105
-108 -207 -52 -102 -134 -261 -182 -355 -88 -172 -184 -357 -390 -760 -194
-379 -252 -490 -259 -497 -4 -4 -118 214 -255 485 -457 906 -678 1342 -681
1345 -7 7 -328 6 -332 -2z"/>
<path d="M4162 4297 c-42 -56 -95 -126 -118 -156 l-41 -55 101 -26 c169 -44
262 -97 383 -217 56 -57 76 -91 94 -166 22 -91 32 -85 176 106 71 95 133 178
137 185 9 16 -101 126 -204 203 -123 92 -232 150 -370 199 l-80 28 -78 -101z"/>
<path d="M3155 2973 c-98 -129 -125 -171 -118 -183 14 -21 141 -119 221 -168
87 -54 301 -160 422 -210 144 -59 230 -99 397 -183 292 -148 424 -260 482
-408 29 -71 32 -93 37 -206 5 -122 -20 -225 -75 -314 -111 -181 -290 -296
-536 -346 -136 -28 -482 3 -610 55 -11 4 -47 18 -80 31 -136 52 -341 192 -384
262 -11 18 -26 58 -34 90 -9 33 -17 60 -19 61 -33 27 -40 23 -77 -48 -21 -39
-47 -87 -58 -106 -81 -137 -143 -251 -143 -262 0 -34 238 -222 368 -291 171
-90 289 -128 532 -173 80 -14 454 -13 550 2 280 44 510 154 680 324 109 109
140 150 195 261 139 275 155 631 40 884 -81 178 -236 332 -465 465 -100 57
-333 167 -505 238 -304 126 -483 222 -621 334 l-71 57 -128 -166z"/>
</g>
</svg>
